<?xml version="1.0" standalone="no"?>
<!DOCTYPE svg PUBLIC "-//W3C//DTD SVG 20010904//EN"
 "http://www.w3.org/TR/2001/REC-SVG-20010904/DTD/svg10.dtd">
<svg version="1.0" xmlns="http://www.w3.org/2000/svg"
 width="500.000000pt" height="500.000000pt" viewBox="0 0 500.000000 500.000000"
 preserveAspectRatio="xMidYMid meet">
<metadata>
Created by potrace 1.11, written by Peter Selinger 2001-2013
</metadata>
<g transform="translate(0.000000,500.000000) scale(0.100000,-0.100000)"
fill="#000000" stroke="none">
<path d="M470 4993 c-1 -11 -1 -4732 -1 -4873 l1 -115 343 0 342 0 2 1135 c1
624 2 1142 2 1150 1 13 156 15 1335 15 734 0 1338 -3 1342 -8 4 -4 7 -520 7
-1147 0 -812 3 -1140 11 -1143 10 -3 629 -1 666 2 13 1 15 282 13 2473 -1
1360 -2 2483 -2 2496 l-1 22 -343 0 -344 0 -1 -1037 c0 -571 -1 -1046 -1
-1055 -1 -17 -72 -18 -1341 -18 l-1340 0 -1 33 c0 17 -1 492 -1 1055 l-1 1022
-343 0 c-189 0 -344 -3 -344 -7z"/>
</g>
</svg>
